<svg width="24" height="24" viewBox="0 0 24 24" fill="none" xmlns="http://www.w3.org/2000/svg">
<circle cx="12" cy="12" r="12" fill="#FFBD5C"/>
<path d="M15.8853 6.54529C14.6313 6.54529 13.5433 7.39483 13.2395 8.6112C13.236 8.62538 13.2333 8.63956 13.2308 8.65402L12 16.0583L10.7694 8.65374C10.767 8.63929 10.764 8.62511 10.7604 8.61092C10.4563 7.39483 9.36844 6.54529 8.11362 6.54529C6.64744 6.54529 5.45453 7.7382 5.45453 9.20465C5.45453 9.74574 5.66535 10.2547 6.04798 10.6373L7.25071 11.84C7.46344 12.053 7.80926 12.053 8.02198 11.84C8.23498 11.627 8.23498 11.2817 8.02198 11.0687L6.81926 9.86602C6.6428 9.68929 6.54544 9.45447 6.54544 9.20438C6.54544 8.33983 7.24907 7.6362 8.11471 7.6362C8.86007 7.6362 9.5078 8.13665 9.69707 8.85611L11.1971 17.8828C11.1995 17.8973 11.2025 17.9115 11.2061 17.9257C11.2988 18.2963 11.6179 18.5453 12 18.5453C12.3821 18.5453 12.7009 18.2963 12.7936 17.9257C12.7974 17.9115 12.8002 17.8973 12.8026 17.8828L14.3029 8.85583C14.4922 8.13665 15.1399 7.6362 15.8863 7.6362C16.7512 7.6362 17.4545 8.33983 17.4545 9.20465C17.4545 9.45447 17.3574 9.68929 17.1804 9.86602L15.978 11.0687C15.765 11.2817 15.765 11.627 15.978 11.84C16.191 12.053 16.5363 12.053 16.7493 11.84L17.9517 10.6376C18.3346 10.2549 18.5454 9.74574 18.5454 9.20438C18.5454 7.7382 17.3525 6.54529 15.8853 6.54529Z" fill="white" stroke="white" stroke-width="0.2"/>
</svg>
