<svg width="24" height="24" viewBox="0 0 24 24" fill="none" xmlns="http://www.w3.org/2000/svg">
<circle cx="12" cy="12" r="12" fill="#64CFB5"/>
<path d="M17.4188 7.95907C17.3457 7.79488 17.1968 7.67705 17.02 7.64433C16.8422 7.61132 16.6617 7.66778 16.5348 7.79488L14.3925 9.93725L13.6089 7.97789C13.5407 7.80742 13.3915 7.68278 13.212 7.64623C13.0329 7.60914 12.8463 7.66533 12.7167 7.79488L10.5744 9.93725L9.7908 7.97789C9.72588 7.81561 9.58733 7.69451 9.41796 7.65169C9.24913 7.60914 9.0694 7.64951 8.93494 7.76133L5.66206 10.4887C5.4305 10.6818 5.39941 11.0255 5.59224 11.257C5.6997 11.3866 5.85489 11.4534 6.01117 11.4534C6.13417 11.4534 6.258 11.412 6.36 11.3271L9.05603 9.0803L9.86825 11.1106C9.93644 11.281 10.0856 11.4057 10.2651 11.4422C10.4454 11.4796 10.6311 11.4231 10.7604 11.2936L12.9028 9.15121L13.6863 11.1106C13.7545 11.281 13.9037 11.4057 14.0832 11.4422C14.2632 11.4796 14.4492 11.4231 14.5785 11.2936L16.7443 9.12776L17.5126 10.8567C17.6348 11.1318 17.9564 11.2554 18.2326 11.1335C18.5078 11.011 18.6319 10.6889 18.5095 10.4135L17.4188 7.95907Z" fill="white" stroke="white" stroke-width="0.2"/>
<path d="M17.4188 12.8685C17.3458 12.7043 17.1968 12.5865 17.0201 12.5538C16.8423 12.5208 16.6617 12.5772 16.5349 12.7043L14.3925 14.8467L13.6089 12.8873C13.5408 12.7169 13.3916 12.5922 13.2121 12.5557C13.0329 12.5186 12.8464 12.5748 12.7168 12.7043L10.5744 14.8467L9.79086 12.8873C9.72594 12.725 9.58739 12.6039 9.41802 12.5611C9.2492 12.5183 9.06946 12.5589 8.935 12.6708L5.66212 15.3982C5.43056 15.5913 5.39947 15.9349 5.5923 16.1665C5.69976 16.296 5.85495 16.3628 6.01123 16.3628C6.13423 16.3628 6.25806 16.3214 6.36006 16.2366L9.0561 13.9897L9.86831 16.02C9.9365 16.1905 10.0857 16.3151 10.2652 16.3517C10.4454 16.389 10.6312 16.3328 10.7604 16.203L12.9028 14.0606L13.6864 16.02C13.7546 16.1905 13.9038 16.3151 14.0832 16.3517C14.2632 16.389 14.4493 16.3328 14.5785 16.203L16.7444 14.0372L17.5127 15.7661C17.6349 16.0413 17.9564 16.1648 18.2327 16.0429C18.5079 15.9205 18.632 15.5984 18.5095 15.3229L17.4188 12.8685Z" fill="white" stroke="white" stroke-width="0.2"/>
</svg>
