<svg width="24" height="24" viewBox="0 0 24 24" fill="none" xmlns="http://www.w3.org/2000/svg">
<circle cx="12" cy="12" r="12" fill="#46C6EF"/>
<path d="M17.2947 15.4329C17.082 15.2198 16.7362 15.2198 16.5235 15.4329C16.3104 15.6459 16.3104 15.9911 16.5235 16.2041L16.6833 16.364H15C14.6991 16.364 14.4545 16.1193 14.4545 15.8185V7.63647C14.4545 6.7659 13.9382 5.97988 13.1394 5.63405C12.5884 5.39568 11.9568 5.39568 11.4061 5.63405C11.105 5.76442 10.8443 5.95724 10.6362 6.19343C10.4281 5.95724 10.1674 5.76442 9.86656 5.63405C9.31563 5.39568 8.68398 5.39568 8.13333 5.63405C7.72805 5.80942 7.39667 6.09879 7.16731 6.45417C6.94584 6.13834 6.6832 5.84815 6.37338 5.60023L6.34037 5.57378C6.10473 5.38587 5.76163 5.42432 5.57372 5.65969C5.3858 5.89506 5.42426 6.23843 5.65963 6.42635L5.69236 6.45226C6.40801 7.025 6.81821 7.87866 6.81821 8.79504V9.81834V14.7276C6.81821 15.0287 7.06258 15.273 7.36367 15.273C7.66477 15.273 7.90914 15.0287 7.90914 14.7276V9.81834V8.79504V7.63647C7.90914 7.20119 8.16715 6.80818 8.5667 6.63526C8.84217 6.5158 9.15799 6.5158 9.43345 6.63526C9.83274 6.80818 10.0907 7.20119 10.0907 7.63647V9.81834V14.7276C10.0907 15.0287 10.3351 15.273 10.6362 15.273C10.9373 15.273 11.1817 15.0287 11.1817 14.7276V9.81834V7.63647C11.1817 7.20119 11.4397 6.80818 11.8392 6.63526C12.1147 6.5158 12.4305 6.5158 12.706 6.63526C13.1055 6.80818 13.3636 7.20119 13.3636 7.63647V15.8185C13.3636 16.721 14.0975 17.4549 15 17.4549H16.6833L16.5235 17.6147C16.3104 17.8277 16.3104 18.173 16.5235 18.386C16.6298 18.4927 16.7695 18.5458 16.9091 18.5458C17.0487 18.5458 17.1884 18.4927 17.2947 18.386L18.3857 17.2951C18.5987 17.0821 18.5987 16.7368 18.3857 16.5238L17.2947 15.4329Z" fill="white" stroke="white" stroke-width="0.2"/>
</svg>
