<svg width="24" height="24" viewBox="0 0 24 24" fill="none" xmlns="http://www.w3.org/2000/svg">
<circle cx="12" cy="12" r="12" fill="#FFBD5C"/>
<path d="M18 6.54541H16.8973C16.0233 6.54541 15.2362 7.06441 14.8917 7.86786L14.1054 9.70223C13.9333 10.104 13.5398 10.3636 13.1026 10.3636H10.8971C10.4602 10.3636 10.0666 10.104 9.89426 9.7025L9.10798 7.86786C8.7638 7.06441 7.97671 6.54541 7.10262 6.54541H5.99998C5.69889 6.54541 5.45453 6.78977 5.45453 7.09086C5.45453 7.39196 5.69889 7.63632 5.99998 7.63632H7.10262C7.53953 7.63632 7.93307 7.89596 8.10544 8.29741L8.89171 10.132C9.0698 10.5477 9.36789 10.8848 9.73389 11.1158C8.79462 11.812 8.1818 12.9253 8.1818 14.1818C8.1818 16.2872 9.89453 18 12 18C14.1054 18 15.8182 16.2872 15.8182 14.1818C15.8182 12.9253 15.2053 11.812 14.2661 11.1158C14.6321 10.8848 14.9302 10.5477 15.1083 10.132L15.8945 8.29768C16.0666 7.89596 16.4602 7.63632 16.8973 7.63632H18C18.3011 7.63632 18.5454 7.39196 18.5454 7.09086C18.5454 6.78977 18.3011 6.54541 18 6.54541ZM14.7273 14.1818C14.7273 15.6856 13.5038 16.909 12 16.909C10.4962 16.909 9.27271 15.6856 9.27271 14.1818C9.27271 12.678 10.4962 11.4545 12 11.4545C13.5038 11.4545 14.7273 12.678 14.7273 14.1818Z" fill="white" stroke="white" stroke-width="0.2"/>
</svg>
