<svg width="24" height="24" viewBox="0 0 24 24" fill="none" xmlns="http://www.w3.org/2000/svg">
<circle cx="12" cy="12" r="12" fill="#FF6C59"/>
<path d="M15.8285 14.1839C15.2705 14.1839 14.6765 14.5701 14.1922 14.9942V10.6384C14.1922 9.63289 13.6928 8.69989 12.8563 8.14243C11.8453 7.46824 10.539 7.46824 9.52822 8.14243C9.37277 8.24607 9.2334 8.36634 9.10222 8.49398C8.83958 7.41452 8.29276 6.42206 7.48712 5.61642C7.27439 5.40341 6.92857 5.40341 6.71584 5.61642C6.50284 5.82942 6.50284 6.17469 6.71584 6.38769C7.66767 7.34006 8.19212 8.60607 8.19212 9.95253V10.6384V11.4566V16.3657C8.19212 16.6668 8.43649 16.9112 8.73758 16.9112C9.03867 16.9112 9.28304 16.6668 9.28304 16.3657V11.4566V10.6384C9.28304 9.99862 9.60077 9.40489 10.1331 9.05007C10.7765 8.62107 11.6078 8.62134 12.2511 9.05007C12.7835 9.40489 13.1012 9.99862 13.1012 10.6384V16.1399L12.3962 16.8452C12.0016 17.2393 11.4771 17.4567 10.9194 17.4567C10.6183 17.4567 10.374 17.701 10.374 18.0021C10.374 18.3032 10.6183 18.5476 10.9194 18.5476C11.7684 18.5476 12.567 18.217 13.1675 17.6165L13.6151 17.1689C14.1302 17.7313 15.0166 18.5476 15.8285 18.5476C17.0315 18.5476 18.0104 17.5688 18.0104 16.3657C18.0104 15.1627 17.0315 14.1839 15.8285 14.1839ZM15.8285 17.4567C15.5105 17.4567 14.8745 16.939 14.3591 16.3657C14.8745 15.7925 15.5105 15.2748 15.8285 15.2748C16.4302 15.2748 16.9194 15.7641 16.9194 16.3657C16.9194 16.9674 16.4302 17.4567 15.8285 17.4567Z" fill="white" stroke="white" stroke-width="0.2"/>
</svg>
