<svg width="24" height="24" viewBox="0 0 24 24" fill="none" xmlns="http://www.w3.org/2000/svg">
<circle cx="12" cy="12" r="12" fill="#FF6C59"/>
<path d="M17.721 6.71893C17.6812 6.49312 17.5045 6.31639 17.2786 6.27657L12.6423 5.4584C12.3459 5.40631 12.0628 5.60403 12.0104 5.90076C11.9581 6.19748 12.1561 6.4803 12.4528 6.53266L16.0577 7.16865L9.95655 13.2698L7.47857 10.7918C7.26585 10.5788 6.92004 10.5788 6.70731 10.7918C6.49431 11.0048 6.49431 11.3501 6.70731 11.5631L9.18528 14.041L5.61641 17.6099C5.40342 17.8229 5.40342 18.1682 5.61641 18.3812C5.72278 18.4878 5.86241 18.541 6.00205 18.541C6.14168 18.541 6.28131 18.4878 6.38768 18.3812L9.95655 14.8123L12.1618 17.0175C12.2682 17.1242 12.4078 17.1774 12.5474 17.1774C12.6871 17.1774 12.8267 17.1242 12.9331 17.0175C13.1461 16.8045 13.1461 16.4593 12.9331 16.2463L10.7278 14.041L16.8287 7.94019L17.4646 11.5451C17.5116 11.8096 17.7415 11.9956 18.0014 11.9956C18.0327 11.9956 18.0646 11.9929 18.0968 11.9871C18.3935 11.9348 18.5915 11.652 18.5392 11.3552L17.721 6.71893Z" fill="white" stroke="white" stroke-width="0.2"/>
</svg>
