<svg width="24" height="24" viewBox="0 0 24 24" fill="none" xmlns="http://www.w3.org/2000/svg">
<circle cx="12" cy="12" r="12" fill="#46C6EF"/>
<path d="M7.09091 12.5327H9.56283C9.50829 13.7076 9.27839 14.8757 8.87149 15.9949L8.21478 17.8009C8.11197 18.0839 8.25787 18.397 8.54095 18.4998C8.60232 18.5219 8.66531 18.5326 8.72722 18.5326C8.95003 18.5326 9.15921 18.3951 9.23966 18.1734L9.89637 16.3674C10.3472 15.1282 10.5997 13.8336 10.6551 12.5325H13.3446C13.3997 13.8336 13.6525 15.1282 14.1031 16.3674L14.7598 18.1734C14.8405 18.3951 15.0497 18.5326 15.2725 18.5326C15.3347 18.5326 15.3974 18.5219 15.459 18.4996C15.7421 18.3967 15.888 18.0837 15.7852 17.8006L15.1285 15.9946C14.7216 14.8757 14.4914 13.7073 14.4369 12.5325H16.9088C17.2099 12.5325 17.4542 12.2881 17.4542 11.987C17.4542 11.686 17.2099 11.4416 16.9088 11.4416H14.4369C14.4914 10.2667 14.7213 9.09867 15.1285 7.97943L15.7852 6.17349C15.888 5.8904 15.7421 5.57732 15.459 5.47451C15.1765 5.37197 14.8631 5.51732 14.76 5.80068L14.1033 7.60662C13.6525 8.84613 13.3997 10.1407 13.3446 11.4419H10.6551C10.5997 10.1407 10.3472 8.84613 9.89637 7.6069L9.23966 5.80095C9.13685 5.51787 8.82376 5.37197 8.54068 5.47478C8.2576 5.5776 8.1117 5.89068 8.21451 6.17376L8.87122 7.9797C9.27811 9.09867 9.50802 10.267 9.56256 11.4419H7.09091C6.78983 11.4419 6.54547 11.6862 6.54547 11.9873C6.54547 12.2884 6.78983 12.5327 7.09091 12.5327Z" fill="white" stroke="white" stroke-width="0.2"/>
</svg>
