<svg width="24" height="24" viewBox="0 0 24 24" fill="none" xmlns="http://www.w3.org/2000/svg">
<circle cx="12" cy="12" r="12" fill="#64CFB5"/>
<path d="M6.77718 16.5328C6.54419 16.681 6.47569 16.9903 6.62394 17.223C6.77243 17.456 7.08118 17.5245 7.31442 17.3765C10.4921 15.354 14.5995 15.354 17.7772 17.3765C17.8602 17.4292 17.9532 17.4545 18.045 17.4545C18.2102 17.4545 18.3719 17.3725 18.4672 17.2227C18.6154 16.9898 18.5467 16.6808 18.3139 16.5325C17.444 15.9788 16.5105 15.5633 15.5455 15.2845V7.6244C16.5105 7.34566 17.444 6.93016 18.3139 6.37642C18.5469 6.22817 18.6154 5.91893 18.4672 5.68618C18.3187 5.45319 18.0102 5.38469 17.7767 5.53268C14.599 7.55515 10.4916 7.55515 7.31392 5.53268C7.08118 5.38469 6.77218 5.45319 6.62369 5.68618C6.47544 5.91918 6.54419 6.22817 6.77693 6.37642C7.64692 6.93016 8.5804 7.34566 9.54538 7.6244V15.2848C8.58065 15.5635 7.64717 15.979 6.77718 16.5328ZM10.5456 7.8569C11.2063 7.98115 11.8756 8.04889 12.5456 8.04889C13.2156 8.04889 13.8848 7.98115 14.5455 7.8569V15.052C13.2243 14.8038 11.8668 14.8038 10.5456 15.052V7.8569Z" fill="white" stroke="white" stroke-width="0.2"/>
</svg>
