<svg width="24" height="24" viewBox="0 0 24 24" fill="none" xmlns="http://www.w3.org/2000/svg">
<circle cx="12" cy="12" r="12" fill="#FF6C59"/>
<path d="M13.9053 17.4491C14.247 18.1805 14.9242 18.6649 15.7165 18.7445C15.8026 18.7533 15.8902 18.7576 15.9785 18.7576C17.3937 18.7576 18.5455 17.6157 18.5455 16.2123C18.5455 15.9112 18.3011 15.6668 18 15.6668C17.6989 15.6668 17.4545 15.9112 17.4545 16.2123C17.4545 17.0144 16.7924 17.6667 15.9785 17.6667C15.9273 17.6667 15.8768 17.6643 15.8264 17.6591C15.4135 17.6176 15.0736 17.373 14.8936 16.9876C14.8362 16.8648 14.6075 16.5455 14.9935 15.7088C15.3794 14.8721 16.7725 11.5455 16.7725 9.5455C16.7725 6.5455 14.4311 5 12.2727 5C10.1144 5 8.77246 6.29881 8.77246 8.0455C8.77246 8.5455 8.77246 9.0455 9.47509 9.67827C9.39736 9.67282 9.31964 9.66655 9.24055 9.66655C7.45391 9.66655 6 11.1076 6 12.8787C6 14.6498 7.45391 16.0909 9.24082 16.0909C11.0277 16.0909 12.4814 14.6498 12.4814 12.8787C12.4814 11.9703 12.0974 11.1505 11.4837 10.5657C10.2289 9.03982 9.77246 8.79414 9.77246 8.0455C9.77219 6.50814 10.716 6.09091 12.2727 6.09091C13.8295 6.09091 15.6818 7.5452 15.6818 9.54496C15.6818 11.0455 14.9488 13.3822 14.2725 14.5455C13.5961 15.7088 13.5502 16.6893 13.9053 17.4491ZM9.24082 15C8.05527 15 7.09091 14.0485 7.09091 12.8787C7.09091 11.709 8.05527 10.7575 9.24082 10.7575C10.4261 10.7575 11.3905 11.709 11.3905 12.8787C11.3905 14.0485 10.4261 15 9.24082 15Z" fill="white" stroke="white" stroke-width="0.2"/>
</svg>
