<svg width="24" height="24" viewBox="0 0 24 24" fill="none" xmlns="http://www.w3.org/2000/svg">
<circle cx="12" cy="12" r="12" fill="#64CFB5"/>
<path d="M17.5 12.6364H14.7373C15.0675 12.1204 15.25 11.5144 15.25 10.8864C15.25 9.09435 13.792 7.63635 12 7.63635C10.208 7.63635 8.75 9.09435 8.75 10.8864C8.75 11.5144 8.9325 12.1204 9.26275 12.6364H6.5C6.224 12.6364 6 12.8604 6 13.1364C6 13.4124 6.224 13.6364 6.5 13.6364H10.42C10.638 13.6364 10.831 13.4951 10.8967 13.2874C10.9625 13.0796 10.886 12.8529 10.7077 12.7276C10.108 12.3056 9.75 11.6174 9.75 10.8864C9.75 9.64585 10.7595 8.63635 12 8.63635C13.2405 8.63635 14.25 9.64585 14.25 10.8864C14.25 11.6174 13.892 12.3056 13.2922 12.7274C13.114 12.8526 13.0372 13.0794 13.1032 13.2871C13.1692 13.4949 13.362 13.6364 13.58 13.6364H17.5C17.776 13.6364 18 13.4124 18 13.1364C18 12.8604 17.776 12.6364 17.5 12.6364Z" fill="white" stroke="white" stroke-width="0.2"/>
<path d="M17.5 15.2727H6.5C6.224 15.2727 6 15.4967 6 15.7727C6 16.0487 6.224 16.2727 6.5 16.2727H17.5C17.776 16.2727 18 16.0487 18 15.7727C18 15.4967 17.776 15.2727 17.5 15.2727Z" fill="white" stroke="white" stroke-width="0.2"/>
</svg>
