<svg width="24" height="24" viewBox="0 0 24 24" fill="none" xmlns="http://www.w3.org/2000/svg">
<circle cx="12" cy="12" r="12" fill="#FFBD5C"/>
<path d="M18.0085 15.8147H15.0085C14.9048 15.8147 14.8091 15.7841 14.7264 15.7337C15.7118 14.6056 16.4747 13.3148 16.947 11.9563C17.1129 11.479 17.1903 11.1449 17.1903 10.9055C17.1903 9.85271 16.3339 8.99633 15.2812 8.99633C14.988 8.99633 14.7115 9.06451 14.463 9.18315V7.63267C14.463 6.7621 13.9467 5.97609 13.1479 5.63026C12.597 5.39189 11.9653 5.39189 11.4147 5.63026C11.1136 5.76063 10.8528 5.95345 10.6447 6.18964C10.4366 5.95345 10.1759 5.76063 9.87508 5.63026C9.32416 5.39189 8.69251 5.39189 8.14186 5.63026C7.73658 5.80563 7.40521 6.095 7.17584 6.45037C6.95438 6.13454 6.69174 5.84436 6.38192 5.59644L6.34891 5.56999C6.11327 5.3818 5.77018 5.42053 5.58226 5.6559C5.39435 5.89127 5.43281 6.23464 5.66817 6.42255L5.7009 6.44846C6.41655 7.0212 6.82674 7.87485 6.82674 8.79123V11.4509V14.7237C6.82674 15.0248 7.07111 15.2692 7.37221 15.2692C7.67331 15.2692 7.91767 15.0248 7.91767 14.7237V11.4509V8.79123V7.63267C7.91767 7.19738 8.17568 6.80438 8.57523 6.63146C8.85069 6.51201 9.16652 6.51201 9.44198 6.63146C9.84126 6.80438 10.0993 7.19738 10.0993 7.63267V11.4509V14.7237C10.0993 15.0248 10.3436 15.2692 10.6447 15.2692C10.9458 15.2692 11.1902 15.0248 11.1902 14.7237V11.4509V7.63267C11.1902 7.19738 11.4482 6.80438 11.8478 6.63146C12.1232 6.51201 12.439 6.51201 12.7145 6.63146C13.1141 6.80438 13.3721 7.19738 13.3721 7.63267V15.2692C13.3721 15.369 13.3824 15.4664 13.3996 15.5613L11.35 17.6109C11.137 17.8239 11.137 18.1692 11.35 18.3822C11.4564 18.4888 11.596 18.542 11.7357 18.542C11.8753 18.542 12.0147 18.4888 12.1213 18.3822L13.9704 16.5333C14.2533 16.7657 14.6146 16.9056 15.0085 16.9056H18.0085C18.3096 16.9056 18.554 16.6612 18.554 16.3601C18.554 16.059 18.3096 15.8147 18.0085 15.8147ZM15.2812 10.0873C15.7323 10.0873 16.0994 10.4544 16.0994 10.9055C16.0994 10.9333 16.0907 11.0977 15.9167 11.5982C15.5837 12.5558 15.0884 13.4768 14.463 14.3223V10.9055C14.463 10.4544 14.8301 10.0873 15.2812 10.0873Z" fill="white" stroke="white" stroke-width="0.2"/>
</svg>
