<svg width="22" height="22" viewBox="0 0 22 22" fill="none" xmlns="http://www.w3.org/2000/svg">
<path d="M7.53425 22C5.62557 22 3.71689 21.3055 2.21005 19.8174C0.803653 18.4284 0 16.5434 0 14.5592C0 12.575 0.803653 10.69 2.21005 9.30101L10.0457 1.56257C12.1553 -0.520857 15.6712 -0.520857 17.8813 1.56257C20.0913 3.646 19.9909 7.11838 17.8813 9.30101L10.7489 16.345C9.34247 17.7339 7.13242 17.7339 5.72603 16.345C4.31963 14.956 4.31963 12.7734 5.72603 11.3844L11.7534 5.43179C12.1553 5.03495 12.758 5.03495 13.1598 5.43179C13.5616 5.82864 13.5616 6.4239 13.1598 6.82074L7.13242 12.7734C6.52968 13.3687 6.52968 14.2616 7.13242 14.8568C7.73516 15.4521 8.63927 15.4521 9.24201 14.8568L16.3744 7.81285C17.0776 7.11838 17.379 6.32469 17.379 5.33258C17.379 4.43968 16.9772 3.54679 16.3744 2.85231C14.968 1.46336 12.758 1.46336 11.4521 2.85231L3.61644 10.5908C2.61187 11.5829 2.00913 12.9718 2.00913 14.46C2.00913 15.9481 2.61187 17.2379 3.61644 18.3292C5.72603 20.4126 9.24201 20.4126 11.4521 18.3292L20.2922 9.59865C20.6941 9.2018 21.2968 9.2018 21.6986 9.59865C22.1005 9.99549 22.1005 10.5908 21.6986 10.9876L12.8584 19.7181C11.4521 21.3055 9.54338 22 7.53425 22Z" fill="#6FBE49"/>
</svg>
