<svg width="24" height="24" viewBox="0 0 24 24" fill="none" xmlns="http://www.w3.org/2000/svg">
<path d="M23 0H1C0.447715 0 0 0.447715 0 1V23C0 23.5523 0.447715 24 1 24H23C23.5523 24 24 23.5523 24 23V1C24 0.447715 23.5523 0 23 0Z" fill="white"/>
<path d="M9 5H4C2.89543 5 2 5.89543 2 7V20C2 21.1046 2.89543 22 4 22H17C18.1046 22 19 21.1046 19 20V15" stroke="#4D4D4D" stroke-width="1.5" stroke-miterlimit="10" stroke-linecap="round" stroke-linejoin="round"/>
<path d="M11.1959 15.8041C11.0677 15.9323 10.9071 16.0232 10.7313 16.0672L8.6169 16.5958C7.88452 16.7789 7.22113 16.1155 7.40423 15.3831L7.93282 13.2687C7.97678 13.0929 8.0677 12.9323 8.19586 12.8041L18.2929 2.70711C18.6834 2.31658 19.3166 2.31658 19.7071 2.70711L21.2929 4.29289C21.6834 4.68342 21.6834 5.31658 21.2929 5.70711L11.1959 15.8041Z" stroke="#4D4D4D" stroke-width="1.5" stroke-miterlimit="10" stroke-linecap="round" stroke-linejoin="round"/>
</svg>
