<svg width="24" height="24" viewBox="0 0 24 24" fill="none" xmlns="http://www.w3.org/2000/svg">
<path d="M12 23C18.0751 23 23 18.0751 23 12C23 5.92487 18.0751 1 12 1C5.92487 1 1 5.92487 1 12C1 18.0751 5.92487 23 12 23Z" fill="#6FBE49"/>
<path d="M8.56676 9.06664C8.56676 9.60052 8.13396 10.0333 7.60009 10.0333C7.06621 10.0333 6.63342 9.60052 6.63342 9.06664C6.63342 8.53277 7.06621 8.09998 7.60009 8.09998C8.13396 8.09998 8.56676 8.53277 8.56676 9.06664Z" fill="white" stroke="white"/>
<path d="M17.3667 9.06664C17.3667 9.60052 16.934 10.0333 16.4001 10.0333C15.8662 10.0333 15.4334 9.60052 15.4334 9.06664C15.4334 8.53277 15.8662 8.09998 16.4001 8.09998C16.934 8.09998 17.3667 8.53277 17.3667 9.06664Z" fill="white" stroke="white"/>
<path d="M16.4 14.64C15.9437 15.3993 15.2987 16.0276 14.5276 16.4638C13.7566 16.9 12.8858 17.1293 12 17.1293C11.1141 17.1293 10.2433 16.9 9.47231 16.4638C8.70128 16.0276 8.05626 15.3993 7.59998 14.64" stroke="white" stroke-width="1.5" stroke-linecap="round" stroke-linejoin="round"/>
</svg>
