<svg width="24" height="24" viewBox="0 0 24 24" fill="none" xmlns="http://www.w3.org/2000/svg">
<path d="M10.3433 4.41687L12.8392 7.8127L20.3333 7.75604V2.7502C20.3333 2.52919 20.2455 2.31723 20.0892 2.16095C19.933 2.00467 19.721 1.91687 19.5 1.91687H4.53499C4.31398 1.91687 4.10202 2.00467 3.94574 2.16095C3.78946 2.31723 3.70166 2.52919 3.70166 2.7502V4.41687H10.3433Z" fill="#4D4D4D"/>
<path d="M21.1667 9.41683L12 9.486L9.5 6.0835H2.83333C2.61232 6.0835 2.40036 6.17129 2.24408 6.32757C2.0878 6.48385 2 6.69582 2 6.91683V18.5835C2 19.2465 2.26339 19.8824 2.73223 20.3513C3.20107 20.8201 3.83696 21.0835 4.5 21.0835H19.5C20.163 21.0835 20.7989 20.8201 21.2678 20.3513C21.7366 19.8824 22 19.2465 22 18.5835V10.2502C22 10.0291 21.9122 9.81719 21.7559 9.66091C21.5996 9.50463 21.3877 9.41683 21.1667 9.41683Z" fill="#4D4D4D"/>
</svg>
