<svg width="23" height="22" viewBox="0 0 23 22" fill="none" xmlns="http://www.w3.org/2000/svg">
<path fill-rule="evenodd" clip-rule="evenodd" d="M18.4044 0H3.6C1.61177 0 0 1.61178 0 3.6V18.4C0 20.3882 1.61178 22 3.6 22H18.4044C20.3926 22 22.0044 20.3882 22.0044 18.4V3.6C22.0044 1.61178 20.3926 0 18.4044 0ZM3.83038 16.5C3.59718 16.5 3.45315 16.2456 3.57315 16.0456L6.40345 11.3294C6.50387 11.1621 6.7348 11.1336 6.8728 11.2716L9.64306 14.0413C9.77692 14.1752 9.99975 14.1531 10.1048 13.9956L14.0159 8.13003C14.1437 7.9384 14.4308 7.95628 14.5339 8.16228L18.4864 16.0658C18.5862 16.2653 18.4411 16.5 18.2181 16.5H3.83038ZM9.90177 6.04997C9.90177 6.96124 9.16289 7.69997 8.25144 7.69997C7.33999 7.69997 6.60111 6.96124 6.60111 6.04997C6.60111 5.1387 7.33999 4.39997 8.25144 4.39997C9.16289 4.39997 9.90177 5.1387 9.90177 6.04997Z" fill="#6FBE49"/>
</svg>
