<svg width="24" height="24" viewBox="0 0 24 24" fill="none" xmlns="http://www.w3.org/2000/svg">
<g clip-path="url(#clip0)">
<path d="M21 0.000244141H3C2.73478 0.000244141 2.48043 0.105601 2.29289 0.293137C2.10536 0.480674 2 0.735028 2 1.00024V23.0002C2 23.2655 2.10536 23.5198 2.29289 23.7074C2.48043 23.8949 2.73478 24.0002 3 24.0002H21C21.2652 24.0002 21.5196 23.8949 21.7071 23.7074C21.8946 23.5198 22 23.2655 22 23.0002V1.00024C22 0.735028 21.8946 0.480674 21.7071 0.293137C21.5196 0.105601 21.2652 0.000244141 21 0.000244141V0.000244141ZM16 16.0002C16 17.0611 15.5786 18.0785 14.8284 18.8287C14.0783 19.5788 13.0609 20.0002 12 20.0002C10.9391 20.0002 9.92172 19.5788 9.17157 18.8287C8.42143 18.0785 8 17.0611 8 16.0002V13.0002H10V16.0002C10 16.5307 10.2107 17.0394 10.5858 17.4145C10.9609 17.7895 11.4696 18.0002 12 18.0002C12.5304 18.0002 13.0391 17.7895 13.4142 17.4145C13.7893 17.0394 14 16.5307 14 16.0002V13.0002H16V16.0002ZM11 14.0002V10.0002C11 9.73503 11.1054 9.48067 11.2929 9.29314C11.4804 9.1056 11.7348 9.00024 12 9.00024C12.2652 9.00024 12.5196 9.1056 12.7071 9.29314C12.8946 9.48067 13 9.73503 13 10.0002V14.0002C13 14.2655 12.8946 14.5198 12.7071 14.7074C12.5196 14.8949 12.2652 15.0002 12 15.0002C11.7348 15.0002 11.4804 14.8949 11.2929 14.7074C11.1054 14.5198 11 14.2655 11 14.0002ZM16 11.0002H14V8.00024C14 7.46981 13.7893 6.9611 13.4142 6.58603C13.0391 6.21096 12.5304 6.00024 12 6.00024C11.4696 6.00024 10.9609 6.21096 10.5858 6.58603C10.2107 6.9611 10 7.46981 10 8.00024V11.0002H8V8.00024C8 6.93938 8.42143 5.92196 9.17157 5.17182C9.92172 4.42167 10.9391 4.00024 12 4.00024C13.0609 4.00024 14.0783 4.42167 14.8284 5.17182C15.5786 5.92196 16 6.93938 16 8.00024V11.0002Z" fill="#4D4D4D"/>
</g>
<defs>
<clipPath id="clip0">
<rect width="24" height="24" fill="white" transform="translate(0 0.000244141)"/>
</clipPath>
</defs>
</svg>
