<svg width="24" height="24" viewBox="0 0 24 24" fill="none" xmlns="http://www.w3.org/2000/svg">
<path d="M21.7649 13.4227C22.0576 12.1422 22.0767 10.8143 21.821 9.52587C21.5652 8.23745 21.0404 7.01753 20.2808 5.94587C19.5212 4.87422 18.5439 3.97498 17.4129 3.30696C16.2819 2.63893 15.0226 2.21717 13.7174 2.06925C12.4122 1.92133 11.0905 2.05059 9.83868 2.44857C8.58687 2.84656 7.43316 3.50429 6.453 4.37878C5.47285 5.25327 4.68832 6.3248 4.15073 7.52331C3.61314 8.72182 3.33459 10.0203 3.3333 11.3339C3.33315 13.0703 3.82069 14.772 4.74039 16.2449L2 22.0003L7.75454 19.2599C7.99187 19.4066 8.23453 19.5435 8.48519 19.6697" stroke="#4D4D4D" stroke-width="1.5" stroke-linecap="round" stroke-linejoin="round"/>
<path d="M8.54536 10.0232C8.44658 10.0186 8.34865 10.0434 8.26397 10.0945C8.17929 10.1455 8.11166 10.2206 8.06962 10.3101C8.02759 10.3996 8.01304 10.4996 8.02782 10.5973C8.0426 10.6951 8.08605 10.7863 8.15266 10.8594C8.21927 10.9325 8.30606 10.9842 8.40206 11.008C8.49805 11.0317 8.59893 11.0265 8.69195 10.9929C8.78497 10.9594 8.86594 10.899 8.92463 10.8194C8.98332 10.7398 9.01709 10.6446 9.02167 10.5458C9.02781 10.4133 8.98108 10.2838 8.89175 10.1858C8.80243 10.0878 8.67783 10.0293 8.54536 10.0232Z" fill="#4D4D4D" stroke="#4D4D4D" stroke-width="1.5" stroke-linecap="round" stroke-linejoin="round"/>
<path d="M12.5913 10.0232C12.4925 10.0186 12.3946 10.0434 12.3099 10.0945C12.2252 10.1455 12.1576 10.2206 12.1155 10.3101C12.0735 10.3996 12.0589 10.4996 12.0737 10.5973C12.0885 10.6951 12.1319 10.7863 12.1986 10.8594C12.2652 10.9325 12.352 10.9842 12.448 11.008C12.5439 11.0317 12.6448 11.0265 12.7378 10.9929C12.8309 10.9594 12.9118 10.899 12.9705 10.8194C13.0292 10.7398 13.063 10.6446 13.0676 10.5458C13.0737 10.4133 13.027 10.2838 12.9377 10.1858C12.8483 10.0878 12.7237 10.0293 12.5913 10.0232Z" fill="#4D4D4D" stroke="#4D4D4D" stroke-width="1.5" stroke-linecap="round" stroke-linejoin="round"/>
<path d="M16.75 19C16.6017 19 16.4567 19.044 16.3333 19.1264C16.21 19.2088 16.1139 19.3259 16.0571 19.463C16.0003 19.6 15.9855 19.7508 16.0144 19.8963C16.0434 20.0418 16.1148 20.1754 16.2197 20.2803C16.3246 20.3852 16.4582 20.4566 16.6037 20.4856C16.7492 20.5145 16.9 20.4997 17.037 20.4429C17.1741 20.3861 17.2912 20.29 17.3736 20.1667C17.456 20.0433 17.5 19.8983 17.5 19.75C17.5 19.5511 17.421 19.3603 17.2803 19.2197C17.1397 19.079 16.9489 19 16.75 19Z" fill="#4D4D4D"/>
<path d="M16.666 17.3337V14.6671" stroke="#4D4D4D" stroke-width="1.5" stroke-linecap="round" stroke-linejoin="round"/>
<path d="M21.8329 19.7178C21.9535 19.9581 22.0105 20.2253 21.9987 20.494C21.9868 20.7626 21.9064 21.0237 21.7651 21.2525C21.6238 21.4813 21.4263 21.6701 21.1914 21.801C20.9565 21.9319 20.692 22.0006 20.4231 22.0004H12.9104C12.6415 22.0005 12.3771 21.9318 12.1422 21.8009C11.9073 21.67 11.7098 21.4812 11.5685 21.2525C11.4271 21.0237 11.3466 20.7627 11.3346 20.494C11.3226 20.2254 11.3794 19.9582 11.4998 19.7178L15.2561 12.2059C15.387 11.9439 15.5884 11.7234 15.8375 11.5694C16.0867 11.4153 16.3738 11.3337 16.6668 11.3337C16.9597 11.3337 17.2469 11.4153 17.496 11.5694C17.7452 11.7234 17.9465 11.9439 18.0774 12.2059L21.8329 19.7178Z" stroke="#4D4D4D" stroke-width="1.5" stroke-linecap="round" stroke-linejoin="round"/>
</svg>
