<svg width="24" height="24" viewBox="0 0 24 24" fill="none" xmlns="http://www.w3.org/2000/svg">
<path fill-rule="evenodd" clip-rule="evenodd" d="M18.404 2.00024H5.6C3.61177 2.00024 2 3.61202 2 5.60024V18.4002C2 20.3885 3.61177 22.0002 5.6 22.0002H18.404C20.3922 22.0002 22.004 20.3885 22.004 18.4002V5.60024C22.004 3.61202 20.3922 2.00024 18.404 2.00024ZM5.53052 17.0003C5.29732 17.0003 5.15329 16.7458 5.27329 16.5459L7.80353 12.3296C7.90395 12.1623 8.13487 12.1339 8.27288 12.2719L10.7431 14.7416C10.8769 14.8754 11.0998 14.8533 11.2048 14.6958L14.7159 9.43027C14.8437 9.23864 15.1308 9.25652 15.2338 9.46252L18.7863 16.5661C18.886 16.7655 18.741 17.0003 18.518 17.0003H5.53052ZM11.0018 7.50022C11.0018 8.32865 10.3301 9.00022 9.50149 9.00022C8.6729 9.00022 8.00119 8.32865 8.00119 7.50022C8.00119 6.67179 8.6729 6.00022 9.50149 6.00022C10.3301 6.00022 11.0018 6.67179 11.0018 7.50022Z" fill="#4D4D4D"/>
</svg>
