<svg width="44" height="44" viewBox="0 0 44 44" fill="none" xmlns="http://www.w3.org/2000/svg">
<rect width="44" height="44" fill="white"/>
<path d="M37.6001 22H25.6001L10.4056 19.462L8.80005 17.2V10L12.3928 7.9192L36.8693 20.8948L37.6001 22Z" fill="#6FBE49"/>
<path d="M36.4 23.2C37.0627 23.2 37.6 22.6627 37.6 22C37.6 21.3373 37.0627 20.8 36.4 20.8C35.7372 20.8 35.2 21.3373 35.2 22C35.2 22.6627 35.7372 23.2 36.4 23.2Z" fill="#6FBE49"/>
<path d="M11.2 19.6C12.5255 19.6 13.6 18.5255 13.6 17.2C13.6 15.8745 12.5255 14.8 11.2 14.8C9.87457 14.8 8.80005 15.8745 8.80005 17.2C8.80005 18.5255 9.87457 19.6 11.2 19.6Z" fill="#6FBE49"/>
<path d="M11.2 12.4C12.5255 12.4 13.6 11.3255 13.6 10C13.6 8.67452 12.5255 7.6 11.2 7.6C9.87457 7.6 8.80005 8.67452 8.80005 10C8.80005 11.3255 9.87457 12.4 11.2 12.4Z" fill="#6FBE49"/>
<path d="M37.6001 22H25.6001L10.4056 24.538L8.80005 26.8V34L12.3928 36.0808L36.8693 23.1052L37.6001 22Z" fill="#6FBE49"/>
<path d="M11.2 29.2C12.5255 29.2 13.6 28.1255 13.6 26.8C13.6 25.4745 12.5255 24.4 11.2 24.4C9.87457 24.4 8.80005 25.4745 8.80005 26.8C8.80005 28.1255 9.87457 29.2 11.2 29.2Z" fill="#6FBE49"/>
<path d="M11.2 36.4C12.5255 36.4 13.6 35.3255 13.6 34C13.6 32.6745 12.5255 31.6 11.2 31.6C9.87457 31.6 8.80005 32.6745 8.80005 34C8.80005 35.3255 9.87457 36.4 11.2 36.4Z" fill="#6FBE49"/>
</svg>
