<svg width="24" height="24" viewBox="0 0 24 24" fill="none" xmlns="http://www.w3.org/2000/svg">
<path d="M10 21.334C10.127 21.7571 10.3908 22.1285 10.7518 22.3928C11.1127 22.6571 11.5516 22.7999 12.0025 22.7999C12.4534 22.7999 12.8923 22.6571 13.2532 22.3928C13.6142 22.1285 13.878 21.7571 14.005 21.334" stroke="#4D4D4D" stroke-width="1.5" stroke-linecap="round" stroke-linejoin="round"/>
<path d="M12 3C13.9891 3 15.8968 3.77265 17.3033 5.14796C18.7098 6.52328 19.5 8.38861 19.5 10.3336C19.5 17.2233 21 18.4006 21 18.4006H3C3 18.4006 4.5 16.5271 4.5 10.3336C4.5 8.38861 5.29018 6.52328 6.6967 5.14796C8.10322 3.77265 10.0109 3 12 3Z" fill="#4D4D4D" stroke="#4D4D4D" stroke-width="1.5" stroke-linecap="round" stroke-linejoin="round"/>
<path d="M12 3V1" stroke="#4D4D4D" stroke-width="1.5" stroke-linecap="round"/>
</svg>
