<svg width="22" height="22" viewBox="0 0 22 22" fill="none" xmlns="http://www.w3.org/2000/svg">
<path d="M0 6.08696C0 2.72522 2.72522 0 6.08696 0H15.913C19.2748 0 22 2.72522 22 6.08696V11.5652C22 17.3282 17.3282 22 11.5652 22H6.08696C2.72522 22 0 19.2748 0 15.913V6.08696Z" fill="#6FBE49"/>
<path fill-rule="evenodd" clip-rule="evenodd" d="M16.1524 11.913L22.0001 11.913V13.913L16.1524 13.913C14.7837 13.913 13.6741 15.0226 13.6741 16.3913V22H11.6741V17.4784C8.48225 17.3248 6.19583 16.344 4.7003 14.35C4.36893 13.9081 4.45848 13.2813 4.9003 12.95C5.34213 12.6186 5.96893 12.7081 6.3003 13.15C7.31833 14.5073 8.94808 15.3463 11.7667 15.4809C12.1873 13.4441 13.991 11.913 16.1524 11.913Z" fill="white"/>
<ellipse cx="6.5" cy="8" rx="1.5" ry="2" fill="white"/>
<ellipse cx="15.5" cy="8" rx="1.5" ry="2" fill="white"/>
</svg>
