<svg width="24" height="24" viewBox="0 0 24 24" fill="none" xmlns="http://www.w3.org/2000/svg">
<path fill-rule="evenodd" clip-rule="evenodd" d="M2.90909 2.00024H21.0909C21.593 2.00024 22 2.40726 22 2.90934V21.0912C22 21.5932 21.593 22.0002 21.0909 22.0002H2.90909C2.40701 22.0002 2 21.5932 2 21.0912V2.90934C2 2.40726 2.40701 2.00024 2.90909 2.00024ZM11.0909 3.81843H8.36364V5.63661H11.0909V3.81843ZM14.7273 12.0002L10.1818 14.7275V9.27297L14.7273 12.0002ZM3.81818 20.1821H6.54545V18.3639H3.81818V20.1821ZM6.54545 5.63661H3.81818V3.81843H6.54545V5.63661ZM8.36364 20.1821H11.0909V18.3639H8.36364V20.1821ZM15.6364 20.1821H12.9091V18.3639H15.6364V20.1821ZM12.9091 5.63661H15.6364V3.81843H12.9091V5.63661ZM20.1818 20.1821H17.4545V18.3639H20.1818V20.1821ZM17.4545 5.63661H20.1818V3.81843H17.4545V5.63661Z" fill="#4D4D4D"/>
</svg>
