<svg width="18" height="18" viewBox="0 0 18 18" fill="none" xmlns="http://www.w3.org/2000/svg">
<path d="M7.31553 8.64538C9.5188 8.64538 11.3049 6.85928 11.3049 4.65602C11.3049 2.45275 9.5188 0.666656 7.31553 0.666656C5.11227 0.666656 3.32617 2.45275 3.32617 4.65602C3.32617 6.85928 5.11227 8.64538 7.31553 8.64538Z" fill="#6FBE49"/>
<path d="M12.0615 10.3447C11.042 9.97373 9.39237 9.53189 7.31568 9.53189C5.239 9.53189 3.58932 9.97373 2.56982 10.3447C1.43138 10.7581 0.666748 11.8241 0.666748 12.9971V15.3333C0.666748 16.4379 1.56218 17.3333 2.66675 17.3333H11.9646C13.0692 17.3333 13.9646 16.4379 13.9646 15.3333V12.9971C13.9646 11.8241 13.2 10.7581 12.0615 10.3447Z" fill="#6FBE49"/>
<path d="M17.2219 4.70129L16.9524 4.97101L15.6953 3.71385L15.9647 3.44464C16.0362 3.37335 16.1331 3.33331 16.2341 3.33331C16.3351 3.33331 16.4319 3.37335 16.5034 3.44464L17.2219 4.16287C17.2933 4.23434 17.3333 4.33121 17.3333 4.43221C17.3333 4.5332 17.2933 4.63007 17.2219 4.70154V4.70129ZM12.1117 7.29764C12.0762 7.33289 12.0481 7.37484 12.0289 7.42105C12.0097 7.46726 11.9999 7.51681 12 7.56685V8.41232C12 8.47967 12.0268 8.54427 12.0744 8.5919C12.122 8.63953 12.1866 8.66629 12.254 8.66629H13.0992C13.1492 8.66641 13.1987 8.65663 13.245 8.63749C13.2912 8.61835 13.3331 8.59025 13.3684 8.55479L16.7729 5.15031L15.5157 3.89315L12.1117 7.29764Z" fill="#6FBE49"/>
</svg>
