<svg width="20" height="20" viewBox="0 0 20 20" fill="none" xmlns="http://www.w3.org/2000/svg">
<path d="M19.5267 8.76999C17.3225 6.34499 13.6667 3.78165 10 3.83332C6.33333 3.78082 2.6775 6.34582 0.473332 8.76999C0.17119 9.10779 0.00415039 9.54511 0.00415039 9.99832C0.00415039 10.4515 0.17119 10.8888 0.473332 11.2267C2.65167 13.6258 6.25583 16.1667 9.86583 16.1667H10.1225C13.745 16.1667 17.3483 13.6258 19.5292 11.2258C19.8309 10.8878 19.9975 10.4505 19.997 9.99743C19.9965 9.54435 19.8291 9.10735 19.5267 8.76999ZM6.16667 9.99999C6.16667 9.24182 6.39149 8.50069 6.8127 7.8703C7.23391 7.23991 7.83259 6.74858 8.53304 6.45845C9.23349 6.16831 10.0042 6.0924 10.7478 6.24031C11.4914 6.38822 12.1745 6.75331 12.7106 7.28941C13.2467 7.82551 13.6118 8.50855 13.7597 9.25214C13.9076 9.99573 13.8317 10.7665 13.5415 11.4669C13.2514 12.1674 12.7601 12.7661 12.1297 13.1873C11.4993 13.6085 10.7582 13.8333 10 13.8333C8.98333 13.8333 8.00831 13.4295 7.28942 12.7106C6.57053 11.9917 6.16667 11.0166 6.16667 9.99999Z" fill="white"/>
<path d="M9.99992 11.6667C10.9204 11.6667 11.6666 10.9205 11.6666 10C11.6666 9.07953 10.9204 8.33334 9.99992 8.33334C9.07944 8.33334 8.33325 9.07953 8.33325 10C8.33325 10.9205 9.07944 11.6667 9.99992 11.6667Z" fill="white"/>
</svg>
