<svg width="16" height="16" viewBox="0 0 16 16" fill="none" xmlns="http://www.w3.org/2000/svg">
<circle cx="8.00008" cy="7.99996" r="5.33333" fill="white"/>
<path fill-rule="evenodd" clip-rule="evenodd" d="M14.6666 8.00004C14.6666 11.6819 11.6818 14.6667 7.99992 14.6667C4.31802 14.6667 1.33325 11.6819 1.33325 8.00004C1.33325 4.31814 4.31802 1.33337 7.99992 1.33337C11.6818 1.33337 14.6666 4.31814 14.6666 8.00004ZM11.7453 6.2759C12.0969 5.89502 12.0826 5.29218 11.7134 4.92943C11.3443 4.56669 10.76 4.58139 10.4084 4.96228L6.71731 8.96098L5.62386 7.64479C5.29209 7.24543 4.70935 7.19918 4.32228 7.54149C3.93521 7.8838 3.89039 8.48504 4.22216 8.88439L5.9804 11.0008C6.15028 11.2053 6.39613 11.326 6.65707 11.333C6.91802 11.3401 7.16966 11.2328 7.34968 11.0378L11.7453 6.2759Z" fill="#2569EC"/>
</svg>
