<svg width="21" height="20" viewBox="0 0 21 20" fill="none" xmlns="http://www.w3.org/2000/svg">
<g clip-path="url(#clip0)">
<path fill-rule="evenodd" clip-rule="evenodd" d="M3.0665 1H18.2665C19.3167 1 20.1665 1.8498 20.1665 2.9V14.3C20.1665 15.3502 19.3167 16.2 18.2665 16.2H6.1665L1.1665 20V2.9C1.1665 1.8498 2.01631 1 3.0665 1ZM18.1665 3H3.1665V14H18.1665V3Z" fill="#27550E"/>
<path d="M5.5665 15.1H5.3594L5.21295 15.2464L2.6665 17.7929V3.7C2.6665 3.03649 3.203 2.5 3.8665 2.5H17.4665C18.13 2.5 18.6665 3.03649 18.6665 3.7V13.9C18.6665 14.5635 18.13 15.1 17.4665 15.1H5.5665ZM11.5165 13.2313H12.0165V12.7313V11.0312V10.5312H11.5165H9.8165H9.3165V11.0312V12.7313V13.2313H9.8165H11.5165ZM12.7846 9.20571L12.8846 9.19844L12.974 9.15321C13.429 8.92309 13.7165 8.46299 13.7165 7.95V5.4C13.7165 4.65569 13.1108 4.05 12.3665 4.05H8.9665C8.2222 4.05 7.6165 4.65569 7.6165 5.4V7.16641V7.66641H8.1165H9.8165H9.93714C9.55327 7.91248 9.3165 8.33446 9.3165 8.8V9.96875V10.4688H9.8165H11.5165H12.0165V9.96875V9.26161L12.7846 9.20571ZM11.0165 7.11417L10.3165 7.467V7.16641V6.75H11.0165V7.11417Z" fill="#6FBE49" stroke="#27550E"/>
</g>
<defs>
<clipPath id="clip0">
<rect width="20" height="20" fill="white" transform="translate(0.166504)"/>
</clipPath>
</defs>
</svg>
