<svg width="20" height="20" viewBox="0 0 20 20" fill="none" xmlns="http://www.w3.org/2000/svg">
<g clip-path="url(#clip0)">
<rect x="-2" y="-2" width="24" height="24" fill="#C4C4C4" fill-opacity="0.01"/>
<path fill-rule="evenodd" clip-rule="evenodd" d="M4 3C2.34315 3 1 4.34315 1 6V14C1 15.6569 2.34315 17 4 17H13C14.6569 17 16 15.6569 16 14V13.75L17.4 14.8C18.0592 15.2944 19 14.824 19 14V6C19 5.17595 18.0592 4.70557 17.4 5.2L16 6.25V6C16 4.34315 14.6569 3 13 3H4Z" fill="#FF0033"/>
<path d="M16 13.75L16.6 12.95L15 11.75V13.75H16ZM17.4 14.8L16.8 15.6L16.8 15.6L17.4 14.8ZM17.4 5.2L16.8 4.4L16.8 4.4L17.4 5.2ZM16 6.25H15V8.25L16.6 7.05L16 6.25ZM2 6C2 4.89543 2.89543 4 4 4V2C1.79086 2 0 3.79086 0 6H2ZM2 14V6H0V14H2ZM4 16C2.89543 16 2 15.1046 2 14H0C0 16.2091 1.79086 18 4 18V16ZM13 16H4V18H13V16ZM15 14C15 15.1046 14.1046 16 13 16V18C15.2091 18 17 16.2091 17 14H15ZM15 13.75V14H17V13.75H15ZM18 14L16.6 12.95L15.4 14.55L16.8 15.6L18 14ZM18 14L18 14L16.8 15.6C18.1185 16.5889 20 15.6481 20 14H18ZM18 6V14H20V6H18ZM18 6L18 6H20C20 4.35191 18.1185 3.41115 16.8 4.4L18 6ZM16.6 7.05L18 6L16.8 4.4L15.4 5.45L16.6 7.05ZM15 6V6.25H17V6H15ZM13 4C14.1046 4 15 4.89543 15 6H17C17 3.79086 15.2091 2 13 2V4ZM4 4H13V2H4V4Z" fill="#86001B"/>
<path d="M7.18697 12.8442C6.80842 13.1338 6.5 13.019 6.5 12.5052V7.49576C6.5 6.98161 6.80842 6.86591 7.18697 7.15551L10.4997 9.4733C10.8783 9.76291 10.8786 10.2368 10.5 10.5264L7.18697 12.8442Z" fill="white" stroke="#86001B"/>
</g>
<defs>
<clipPath id="clip0">
<rect width="20" height="20" fill="white"/>
</clipPath>
</defs>
</svg>
