<svg width="24" height="24" viewBox="0 0 24 24" fill="none" xmlns="http://www.w3.org/2000/svg">
<path d="M12 12C14.7575 12 17 9.7575 17 7C17 4.2425 14.7575 2 12 2C9.2425 2 7 4.2425 7 7C7 9.7575 9.2425 12 12 12Z" fill="#B3B3B3"/>
<path d="M18.1016 14.4842C14.1816 13.3983 9.81908 13.3983 5.89825 14.4842C4.09409 14.9842 2.83325 16.6367 2.83325 18.5042V20C2.83325 21.1046 3.72868 22 4.83325 22H19.1666C20.2711 22 21.1666 21.1046 21.1666 20V18.5042C21.1666 16.6367 19.9058 14.9842 18.1016 14.4842Z" fill="#B3B3B3"/>
</svg>
