<svg width="18" height="16" viewBox="0 0 18 16" fill="none" xmlns="http://www.w3.org/2000/svg">
<path d="M9.00016 11.6667C10.4729 11.6667 11.6668 10.4728 11.6668 9.00002C11.6668 7.52726 10.4729 6.33335 9.00016 6.33335C7.5274 6.33335 6.3335 7.52726 6.3335 9.00002C6.3335 10.4728 7.5274 11.6667 9.00016 11.6667Z" fill="white"/>
<path d="M6.50008 0.666687L4.97508 2.33335H2.33341C1.41675 2.33335 0.666748 3.08335 0.666748 4.00002V14C0.666748 14.9167 1.41675 15.6667 2.33341 15.6667H15.6667C16.5834 15.6667 17.3334 14.9167 17.3334 14V4.00002C17.3334 3.08335 16.5834 2.33335 15.6667 2.33335H13.0251L11.5001 0.666687H6.50008ZM9.00008 13.1667C6.70008 13.1667 4.83342 11.3 4.83342 9.00002C4.83342 6.70002 6.70008 4.83335 9.00008 4.83335C11.3001 4.83335 13.1667 6.70002 13.1667 9.00002C13.1667 11.3 11.3001 13.1667 9.00008 13.1667Z" fill="white"/>
</svg>
