<svg width="24" height="24" viewBox="0 0 24 24" fill="none" xmlns="http://www.w3.org/2000/svg">
<path fill-rule="evenodd" clip-rule="evenodd" d="M2.4 0H21.6C22.9266 0 24 1.07344 24 2.4V16.8C24 18.1266 22.9266 19.2 21.6 19.2H4.8L1.70711 22.2929C1.07714 22.9229 0 22.4767 0 21.5858V2.4C0 1.07344 1.07344 0 2.4 0ZM15 8.57143C15 9.00446 14.7539 9.39286 14.3574 9.58928L12.6667 9.70982V11.2857H10.3333V9.71429C10.3333 9.28125 10.5794 8.89286 10.9759 8.69643L12.6667 7.86161V6.28571H10.3333V7.51786H8V5.14286C8 4.51339 8.52409 4 9.16667 4H13.8333C14.4759 4 15 4.51339 15 5.14286V8.57143ZM12.6667 15H10.3333V12.7143H12.6667V15Z" fill="#4D4D4D"/>
</svg>
