<svg width="24" height="24" viewBox="0 0 24 24" fill="none" xmlns="http://www.w3.org/2000/svg">
<path d="M7.4002 14.2C7.23451 13.9791 6.92111 13.9343 6.7002 14.1C6.47928 14.2657 6.43451 14.5791 6.6002 14.8L7.4002 14.2ZM16.9061 13.6477L16.9196 14.1475L16.9061 13.6477ZM6.6002 14.8C7.98268 16.6433 10.2528 17.5 13.5218 17.5V16.5C10.4143 16.5 8.51772 15.69 7.4002 14.2L6.6002 14.8ZM21.5518 13.0219L16.8926 13.1478L16.9196 14.1475L21.5788 14.0215L21.5518 13.0219ZM13.0218 17.1246V21.3478H14.0218V17.1246H13.0218ZM16.8926 13.1478C14.7381 13.2061 13.0218 14.9694 13.0218 17.1246H14.0218C14.0218 15.5111 15.3067 14.1911 16.9196 14.1475L16.8926 13.1478Z" fill="#4D4D4D"/>
<path d="M2.5 8.08696C2.5 5.00137 5.00137 2.5 8.08696 2.5H15.913C18.9986 2.5 21.5 5.00137 21.5 8.08696V11.5652C21.5 17.052 17.052 21.5 11.5652 21.5H8.08696C5.00137 21.5 2.5 18.9986 2.5 15.913V8.08696Z" stroke="#4D4D4D"/>
<ellipse cx="8.25" cy="9.50004" rx="1.25" ry="1.66667" fill="#4D4D4D"/>
<ellipse cx="14.9167" cy="9.50004" rx="1.25" ry="1.66667" fill="#4D4D4D"/>
</svg>
